<svg width="72" height="60" viewBox="0 0 72 60" fill="none" xmlns="http://www.w3.org/2000/svg"><g clip-path="url(#_2629755967__a)"><path d="M71.83 59.557H43.854l-7.472-.038-32.574.038s-1.26-4.23 2.563-7.45c3.826-3.218 5.83-.243 6.135-5.344.303-5.101 3.825-5.89 4.797-6.314.97-.425 2.063-1.639 1.517-3.705-.546-2.064.487-7.227 6.74-7.894h24.494c5.54-.304 7.486 5.016 6.74 7.894-.538 2.066.546 3.28 1.517 3.705.971.425 4.493 1.213 4.797 6.314.304 5.101 2.309 2.126 6.135 5.343 3.427 2.878 2.766 6.68 2.589 7.451Z" fill="#EEE9FF"/><path d="M53.832 17.71H21.834v16.62h31.998V17.71Z" fill="#F5F5FC"/><path d="M53.826 17.674H21.848v1.316h31.978v-1.316Z" fill="url(#_2629755967__b)"/><path d="M29.237 18.985H22.62V33.52h6.618V18.985Z" fill="#D6CFFF"/><path d="M51.81 36.895H23.85c-1.113 0-2.014-.9-2.014-2.014v-.838h31.987v.838c0 1.113-.9 2.014-2.014 2.014Z" fill="#fff"/><path d="M52.796 16.31H22.864c-.567 0-1.03.46-1.03 1.027v.183h-.021v16.632h32.01V17.337c0-.566-.46-1.027-1.027-1.027Zm-30 16.954V17.7H52.84v15.564H22.796Z" fill="#A58FFF"/><path d="M48.878 22.444H33.19v10.831h15.688v-10.83Z" fill="#FFAEEC"/><path d="M46.61 32.11h-5.505l2.754-5.12 1.019 1.898.868 1.615.865 1.606Z" fill="#F78BE3"/><path d="M43.531 32.11H35.55l3.991-7.425 1.48 2.751 1.26 2.344 1.251 2.33Z" fill="#E260CF"/><path d="M70.783 23.537c-.183 3.728-2.262 6.907-5.946 8.109a10.942 10.942 0 0 1-3.185.51 7.104 7.104 0 0 1-1.099-.064h-.002a7.14 7.14 0 0 1-1.7-.458c-.051-.02-.101-.041-.149-.065a1.334 1.334 0 0 0-.097-.041l-.174-.08a7.315 7.315 0 0 1-1.458-.945 7.415 7.415 0 0 1-2.622-6.582c.25-1.967 1.45-3.578 4.723-4.668 2.223-.74 2.852-3.498 5.713-3.958 3.947-.635 6.16 4.803 5.996 8.242Z" fill="url(#_2629755967__c)"/><path d="M18.657 30.3c-2.436 4.177-9.258 4.814-13.47 2.444-5.562-3.13-6.064-7.085-4.237-10.22 1.122-1.922 3.554-3.277 7.466-2.89 1.78.177 2.002-1.087 3.312-1.798 1.311-.711 3.345-1.004 4.414-.257 2.52 1.762 1.399 4.582.605 5.302-1.464 1.331-1.11 2.533.313 3.029 2.137.747 2.725 2.45 1.597 4.39Z" fill="url(#_2629755967__d)"/><path d="m65.537 53.04-.154.897-.12.723-.833 4.888h-5.418l-.7-4.888-.102-.723-.127-.898h7.454Z" fill="#D7BDFF"/><path d="M65.764 53.945h-7.982l-.42-1.86h8.895l-.493 1.86Z" fill="#D7BDFF"/><path d="m20.768 43.353-.006.039-.115.679-.502 2.928-.508 2.985-1.627 9.526h-1.166l1.612-9.432.387-2.261.637-3.746.119-.68.006-.038h1.163ZM57.297 59.557h-1.163l-2.65-15.486-.116-.68-.006-.038h1.163l.006.039.118.679 2.648 15.486Z" fill="#A58FFF"/><path d="m20.762 43.392-.115.679H19.48l.118-.68h1.163ZM54.65 44.07h-1.167l-.115-.678h1.163l.118.679ZM20.145 47a2.866 2.866 0 0 0-1.305.818l-.387 2.263c.269-.245.54-.106.54-.106.237.056.45.053.641.012l.51-2.988Z" fill="#846CEA"/><path d="M57.87 41.559H17.777v1.827H57.87v-1.827Z" fill="#fff"/><path d="M48.978 41.119h-4.903v.42h4.903v-.42Z" fill="#473CDD"/><path d="M44.432 40.15s-.018-.256.266-.416c.147-.082.363-.197.493-.262s.758-.145.92.112c.163.257.196.823.033 1.18-.162.355-.325.647-.325.647l-1.003-.42-.384-.84Z" fill="#FFC8BB"/><path d="m45.17 39.702-.053-.018.505-1.561a.14.14 0 0 1 .17-.09h.004c.07.024.109.101.088.172l-.437 1.355a.22.22 0 0 1-.277.142Z" fill="#473CDD"/><path d="M46.156 41.273s-.298.776-1.057 1.263c-.587.38-1.452.584-2.666.124v2.001H32.93l.042-1.482s-.41.05-.75-.138c-.015-.01-.027-.015-.039-.024l-.014-.009c-.225-.141-.408-.398-.408-.85 0-1.166.396-5.727 3.026-6.595l5.423-.127s1.721-.056 2.557 1.444c.832 1.5 2.001 3.445 2.001 3.445s.98-.165 1.388.947Z" fill="#AD83FF"/><path d="M45.096 42.536c-.587.38-1.452.584-2.665.124v-3.185c.003 0 .962 3.634 2.665 3.06Z" fill="#8F64F4"/><path d="m31.88 43.466.038-.01a.082.082 0 0 1-.039.01Z" fill="#9E72F2"/><path d="m33.338 38.297-.363 4.882s-.41.05-.75-.139c-.015-.008-.027-.014-.038-.023.525-1.329 1.124-4.573 1.15-4.72Z" fill="#8F64F4"/><path d="M36.432 56.82c-.003.01-.003.022-.003.03-.015.112-.027.24-.038.381a7.374 7.374 0 0 0-.024.933l.009.003-.024.333H34.95l-.018-.333.006-.003c.015-.319 0-.65-.024-.933a8.188 8.188 0 0 0-.038-.38c-.003-.012-.003-.021-.003-.03h1.559ZM40.553 56.82c-.003.01-.003.022-.003.03-.015.112-.027.24-.038.381-.024.283-.039.611-.024.933l.006.003-.018.333h-1.402l-.024-.333.01-.003c.014-.319 0-.65-.025-.933-.011-.13-.023-.25-.035-.357l-.003-.024c-.003-.011-.003-.02-.003-.03h1.559Z" fill="#FFC8BB"/><path d="M36.429 56.85c-.015.112-.027.24-.039.381h-1.476a8.472 8.472 0 0 0-.038-.38h1.553ZM40.55 56.85c-.015.112-.027.24-.038.381h-1.477L39 56.874l-.003-.024h1.553Z" fill="#EDA69D"/><path d="M34.413 59.551s.05-1.08.522-1.617c0 0 .72-.505 1.429 0 0 0 .145.324.292.516.186.248.378.505.322 1.09l-2.565.011ZM41.028 59.551s-.1-1.19-.54-1.617c0 0-.67-.476-1.429 0 0 0-.145.324-.292.516-.186.248-.378.505-.322 1.09l2.583.011Z" fill="#381177"/><path d="m37.441 50.06-.02.32-.006.168-.07 1.786-.045 1.077-.21 3.433h-2.734l-.156-3.433-.032-1.077-.056-1.786-.004-.169-.014-.319h3.347ZM41.483 50.06l-.02.32-.007.168-.073 1.786-.045 1.077-.206 3.433h-2.734l-.156-3.433-.033-1.077-.056-1.786-.006-.169-.015-.319h3.351Z" fill="#473CDD"/><path d="M34.111 50.548h3.304l-.071 1.785h-3.177l-.056-1.785ZM41.456 50.548l-.074 1.785H38.21l-.056-1.785h3.303Z" fill="#3030B5"/><path d="M32.694 59.522h-.628l-.228-8.98 1.128.003-.272 8.977ZM43.5 59.522h-.627l-.218-8.974 1.154-.006-.31 8.98Z" fill="#A58FFF"/><path d="M32.393 59.522h-.327l-.228-8.98h.644l-.089 8.98ZM43.213 59.522h-.349l-.23-9.464.673-.024-.094 9.488Z" fill="#846CEA"/><path d="M43.81 50.542H31.837v-2.979a5.908 5.908 0 0 1 5.908-5.907h.156a5.908 5.908 0 0 1 5.907 5.907v2.979Z" fill="#fff"/><path d="M36.946 29.576s1.062-.428 2.043.163c1.195.72.897 2.193.864 2.612-.032.42.23.72.529 1.013.298.292.939 1.22.33 2.409-.56 1.095-.059 1.325.352 1.818.567.682.791 2.554-1.515 3.265-2.305.709-5.405-.026-5.34-2.07 0 0 .02-.71.593-1.42.889-1.097-.372-1.245-.177-2.839.133-1.066 1.063-1.21.88-2.193-.198-1.06.189-2.338 1.44-2.758Z" fill="#381177"/><path d="M61.232 48.428s-3.513-1.73-2.695-3.194c.744-1.326.23-1.488-.307-1.957-.537-.47-.738-1.075.033-1.712.77-.638-.18-1.92.425-2.76.605-.839 2.096-.904 2.73.295.32.599.46 1.313.334 2.152-.1.661.162 1.325.998 1.14.221-.051.614-.116.824-.063.785.195 1.346 1.066.737 2.684-.283.755-1.136 1.269-1.836 1.62-1.03.517-1.243 1.795-1.243 1.795ZM61.75 51.353s-.517-2.996 1.337-3.772c1.853-.777 1.833-.647 2.134-1.574.301-.927 1.145-2.158 2.734-1.783 1.437.34 1.434 2.194.466 2.911-1.346.998.103 2.255-2.353 3.114-1.978.691-2.648-.693-4.319 1.104ZM60.288 51.035s.747-2.471-1.072-2.752c-1.818-.28-.304-1.328-1.656-2.028-1.352-.7-2.308.582-1.771 1.586.422.79-.98 1.446.024 2.518 1 1.071 3.728-.957 4.475.676ZM18.001 50.539s-.549-3.419 2.114-4.278c2.253-.726 3.466 1.063 5.397-.502 0 0-.14 2.377-1.872 2.713 0 0-.7.14-1.819-.643-.54-.378-.956-.044-1.166.502-.203.534-.79 1.098-1.659.897 0-.003-.773-.395-.995 1.31ZM10.772 43.014s1.845 2.82 3.767 3.492c1.921.673 2.721 1.763 2.639 3.764 0 0-1.234-3.241-3.363-1.992-1.378.809-1.845-.201-1.845-.523 0-.325-.354-.611-.847-.348-.735.387-3.321-.726-.351-4.393ZM13.331 49.145s.242 1.01 1.648 1.143c1.402.13 1.738.88 1.759 1.514 0 0-.523-1.31-1.928-.746-1.402.557-2.713-.47-1.479-1.91ZM14.34 41.907s.612 2.19 2.18 3.044c1.794.977 1.018 4.159 1.018 4.159s-.012-2.548-1.875-3.053c-1.863-.507-2.716-2.373-1.322-4.15Z" fill="#D7BDFF"/><path d="m61.268 52.092-.15-.003c.002-.083.203-8.375-.916-11.17l.139-.057c1.13 2.825.927 11.147.927 11.23ZM61.826 52.08h-.15v-.505c0-.024-.013-2.373 2.337-2.613 1.314-.132 2.244-.98 2.69-2.45.012-.035.017-.059.023-.077l.142.054c-.006.012-.012.035-.02.068-.467 1.532-1.441 2.414-2.82 2.556-2.214.224-2.205 2.438-2.205 2.462v.505h.003ZM60.391 52.115l-.15-.009c0-.006.03-.537 0-1.045-.03-.531-.653-1.777-2.014-1.703-.363.018-.664-.088-.891-.322-.567-.578-.49-1.718-.487-1.765l.15.012c0 .012-.074 1.119.446 1.65.198.2.458.295.776.278 1.55-.08 2.14 1.343 2.17 1.845.03.513 0 1.053 0 1.06ZM18.099 52.717h-.15V50.67c0-.033-.057-3.377 2.718-3.965l.03.148c-2.657.564-2.601 3.784-2.601 3.817v2.048h.003ZM16.791 52.75h-.15v-.561a1.62 1.62 0 0 0-.564-1.24 1.402 1.402 0 0 0-1.16-.319c-1.093.186-1.347-.354-1.355-.375l.135-.062c.01.018.225.455 1.193.29.47-.08.924.044 1.284.351.393.336.623.841.614 1.355v.56h.003Z" fill="#846CEA"/><path d="M17.23 52.747h-.15v-2.114c.012-1.818-.933-3.04-2.66-3.445-2.335-.546-3.33-2.057-3.338-2.072l.127-.08c.002.003.242.372.761.803.478.396 1.3.927 2.486 1.205 1.804.422 2.787 1.697 2.775 3.592V52.747Z" fill="#846CEA"/><path d="M17.647 52.717h-.15v-4.07c0-.024.082-1.908-1.172-2.693-1.281-.803-1.724-1.434-1.74-1.615l.151-.011c.01.073.349.67 1.668 1.5.552.345.94.944 1.125 1.73.139.59.115 1.07.115 1.091l.003 4.068Z" fill="#846CEA"/><path d="m20.965 54.353-.05.254-.003.011v.01l-.103.537-.03.141-.056.293-.761 3.94-5.48-.04-.696-3.9-.053-.293-.027-.141-.094-.538-.003-.009v-.011l-.047-.254h7.403Z" fill="#D7BDFF"/><path d="M21.296 54.612h-8.142l-.425-1.895h9.069l-.502 1.895Z" fill="#D7BDFF"/><path d="M65.262 54.66h-4.089a.51.51 0 0 0-.504.581l.614 4.307h-2.27l-.7-4.891-.104-.72h7.174l-.12.723ZM20.913 54.618l-.003.01-.104.536-.026.142h-4.222a.556.556 0 0 0-.546.647l.611 3.56-2.143-.018-.697-3.896-.053-.293-.027-.142-.094-.537-.003-.009h7.307Z" fill="#C1A2FC"/><path d="M50.918 24.505s-1.627-1.151-1.966-1.585c-.038-.048-.23 2.208-.23 2.208s.935.34 1.355.38c.419.042.543.19.543.19l.298-1.193Z" fill="#FFD5C2"/><path d="M64.808 31.658a10.94 10.94 0 0 1-3.156.501h-.03a7.053 7.053 0 0 1-3.829-1.06 7.304 7.304 0 0 1-.82-.59c.245-.83.726-3.368-.352-5.299v-.003s0-.003-.003-.003c0 0-.927 1.019-2.096 1.423-1.142.396-2.674.508-4.26-.61a.092.092 0 0 1-.02-.015l.006-.018.073-.222.452-1.366s1.783 1.024 3.51-.414c.024-.017.044-.038.068-.059 1.721-1.532 1.134-1.676 2.725-2.866.03-.02.059-.044.091-.068l1.39-.703s2.2-.375 3.921 1.199c1.721 1.57 2.548 4.33 1.836 6.353v.003c.01.026.133.484.257 1.157.133.723.263 1.7.237 2.66Z" fill="#9359EF"/><path d="m64.837 31.646-.03.009c-.947.304-2 .48-3.155.502a7.104 7.104 0 0 1-1.098-.065h-.003c3.182-2.01 3.76-4.254 3.76-4.254v.003c.01.023.55 1.983.526 3.805ZM61.191 24.245s4 2.359-2.385 6.754c0 0 1.355-1.219 1.429-2.205.074-.986.398-1.225.835-1.85.526-.75-.575-.582.121-2.699ZM56.618 25.204c-.003-.003-.927 1.016-2.096 1.423-1.142.396-2.674.508-4.26-.61l-.014-.033.073-.222c.467.242 1.556.732 2.197.443.835-.375 1.228-.094 1.798-.375.9-.445 1.095-1.384 1.724-1.508 0 0 .41.602.578.882Z" fill="#793DD8"/><path d="M57.109 21.03s-.148.59.442.703c.821.156 1.131-.73 1.131-.73s-1.054-.176-1.066-.18c-.008 0-.507.207-.507.207ZM60.55 32.092a7.137 7.137 0 0 1-1.7-.458c-.05-.02-.1-.041-.147-.065-.033-.015-.065-.03-.098-.041l-.174-.08.971-.883c0 .003 1.35.396 1.149 1.527Z" fill="#6131BC"/><path d="M54.655 17.281s-.088 1.432-.336 1.556c-.248.124-.372.392-.116.508.26.115.302.177.322.342.02.165.127 1.246.856 1.187.644-.05 1.394-.484 1.783.248.148.274.44.445.75.416.177-.018.37-.071.532-.198.324-.25.372-.723.13-1.054a7.019 7.019 0 0 1-.523-.815c-.274-.52-.785-1.547-.785-1.547l-.434-.634-2.179-.009Z" fill="#FFD5C2"/><path d="M54.72 19.74s.263.036.596-.044c0 0-.005.233-.306.242-.275.006-.29-.198-.29-.198Z" fill="#fff"/><path d="M57.519 18.77s-.277.256-.558-.072c0 0-.027 1.01.974.688l-.416-.617Z" fill="#EFB7A0"/><path d="M55.036 18.725a.16.16 0 1 0 0-.32.16.16 0 0 0 0 .32ZM54.921 18.014s.363-.098.555.209c0 0-.245-.145-.47-.086-.165.045-.18.006-.194-.011-.012-.018 0-.089.109-.113Z" fill="#381177"/><path d="M58.215 19.731c-.047 0-.555-.124-.862-.93l-.36-.566s-.51-.012-.765-.523c-.634.136-1.845.28-2.22-.499-.463-.96.44-.64.9-.894.476-.266 1.887-1.62 3.28-.505.325.26.272.576.464.602.408.06.59.526.656.756.522 1.84-1.093 2.56-1.093 2.56Z" fill="#381177"/><path d="M57.256 18.858c.202 0 .366-.186.366-.414 0-.228-.164-.413-.366-.413-.202 0-.366.185-.366.413 0 .229.164.414.366.414Z" fill="#FFD5C2"/><path d="M48.946 26.568h-4.01a.62.62 0 0 1-.62-.62V21.94a.62.62 0 0 1 .62-.62h4.01a.62.62 0 0 1 .62.62v4.01a.62.62 0 0 1-.62.62Z" fill="#00C4CC"/><path d="M46.085 24.269a.477.477 0 0 0 .387-.186l.207.212a.746.746 0 0 1-.576.275.755.755 0 0 1-.546-.21.712.712 0 0 1-.216-.528.737.737 0 0 1 .753-.744c.236 0 .431.088.59.268l-.197.225a.463.463 0 0 0-.378-.19.437.437 0 0 0-.31.119.414.414 0 0 0-.127.319c0 .133.041.239.121.322.08.08.177.118.292.118ZM47.957 24c0 .16-.056.295-.165.404a.574.574 0 0 1-.416.166.565.565 0 0 1-.582-.57c0-.16.056-.295.165-.404a.574.574 0 0 1 .416-.166.565.565 0 0 1 .582.57Zm-.856 0c0 .092.026.163.077.221.05.057.118.086.198.086.08 0 .144-.03.197-.085A.32.32 0 0 0 47.65 24a.32.32 0 0 0-.077-.221.257.257 0 0 0-.197-.086c-.08 0-.145.03-.198.086A.312.312 0 0 0 47.1 24ZM48.208 24.517a.172.172 0 0 1-.053-.127c0-.05.017-.095.053-.127a.172.172 0 0 1 .127-.053c.05 0 .094.017.127.053a.172.172 0 0 1 .053.127c0 .05-.018.094-.053.127a.172.172 0 0 1-.127.053.172.172 0 0 1-.127-.053Z" fill="#fff"/><path d="M30.595 30.503h-4.009a.62.62 0 0 1-.62-.62v-4.008a.62.62 0 0 1 .62-.62h4.01a.62.62 0 0 1 .62.62v4.008a.62.62 0 0 1-.62.62Z" fill="#00C4CC"/><path d="M29.733 29.063h-2.282a.283.283 0 0 1-.283-.284v-1.293c0-.156.127-.283.283-.283h2.282c.157 0 .284.127.284.283v1.293a.284.284 0 0 1-.284.284ZM28.443 27.011h-1.198a.08.08 0 0 1-.08-.08v-.159a.08.08 0 0 1 .08-.08h1.157c.035 0 .068.024.077.06l.041.159c.015.05-.023.1-.077.1Z" fill="#fff"/><path d="M25.453 22.872h-7.395a1.695 1.695 0 0 1-1.695-1.694v-.044c0-.936.759-1.695 1.695-1.695h7.395c.936 0 1.694.759 1.694 1.695v.044c0 .936-.758 1.694-1.694 1.694Z" fill="#E8E6FF"/><path d="M25.683 20.67h-7.856v.15h7.856v-.15ZM25.683 21.494h-7.856v.15h7.856v-.15Z" fill="#846CEA"/><path d="m19.123 22.61-.454 1.071a.12.12 0 0 1-.222 0l-.454-1.071h1.13Z" fill="#E8E6FF"/><path d="m9.88 24.118-.03.139-.144.679h-.003l-.098-.02-1.673-.364.445-2.125 1.503 1.691Z" fill="#A55656"/><path d="M11.902 20.983v1.284s.003 2.507-2.181 1.966c-2.433-.602-1.04-2.913-1.04-2.913l1.051-1.051 2.132.847.038-.133Z" fill="#A55656"/><path d="m9.85 24.257-.144.679h-.003l-.097-.02c-.287-.078-1.158-.568-.786-1.79-.003-.003.054.682 1.03 1.13ZM11.211 21.863s-.239.484-.002.667c.256.2.112.466-.124.425 0 0 .194.118.36-.035.156-.145.07-.364-.042-.437-.103-.068-.292-.195-.192-.62Z" fill="#7C3131"/><path d="M10.199 22.317a.16.16 0 1 0 0-.318.16.16 0 0 0 0 .318ZM11.516 22.317a.16.16 0 1 0 0-.318.16.16 0 0 0 0 .318Z" fill="#30171B"/><path d="M9.818 21.644s.278-.324.673-.127c0 0 .104.065.054.127-.08.095-.151-.162-.727 0ZM11.902 21.53v.082c-.437-.115-.516.085-.581-.003-.047-.065.059-.124.059-.124a.542.542 0 0 1 .522.044Z" fill="#CCC0FF"/><path d="M10.48 23.297s.377.127.684-.008c0 0-.026.289-.372.274-.286-.012-.313-.266-.313-.266Z" fill="#fff"/><path d="M9.452 21.04s1.618.265 2.799.023c0 0-.015.015.088-.366.103-.39-.224-1.639-1.497-1.65-1.54-.018-1.644-.842-3.055.664-1.06 1.133-.676 2.22-.337 2.539.65.613.741 1.039.741 1.039s.46-.346.29-1.305c-.003 0 1.121.097.97-.945Z" fill="#CCC0FF"/><path d="M7.613 20.676a1.225 1.225 0 1 0 0-2.45 1.225 1.225 0 0 0 0 2.45Z" fill="#CCC0FF"/><path d="M7.203 20.635s-.228-1.78 1.508-1.707c.003-.002-1.095.408-1.508 1.707Z" fill="#7F53F9"/><path d="M8.658 22.323c.209 0 .378-.182.378-.407 0-.225-.17-.407-.378-.407-.209 0-.378.182-.378.407 0 .225.17.407.378.407Z" fill="#A55656"/><path d="M7.823 24.316s-.263.841-.789.971c-.7.174-1.992-.153-2.878 1.951-.886 2.105-1.742 6.377.877 6.389 2.775.011 3.817-.003 3.817-.003l-.009-.848 2.46.062.976-4.7s.46-1.832-1.204-2.18c-1.382-.29-1.11-.567-1.063-1.075 0 .003-1.18-.033-2.187-.567Z" fill="#9359EF"/><path d="M5.984 28.425c.011-.088-1.14 3.047.395 3.123 1.007.05 1.963.05 2.456.042.018 0-.003.891.012.891.227-.003.6-.017.6-.017s.117-1.287-2.268-1.645c-1.31-.192-1.36-1.266-1.195-2.394ZM11.303 27.731s-.103.476-.257.789c-.277.56.883 1.797-.516 2.541 0 0-.2.074-.254.635-.053.56-.074.87-.074.87s1.417.692 1.435.565c.018-.127-.363-.927-.546-1.234-.183-.31.224-.709.404-1.29.18-.582-.257-1.287-.103-1.57.334-.615.11-1.087-.089-1.306Z" fill="#6A37CC"/><path d="M8.835 33.63v-1.143s1.467-.044 1.739-.044c.271 0 .676.091 1.417.72l.54.585-3.696-.118Z" fill="#A55656"/><path d="m19.705 29.281-1.048 4.157a.928.928 0 0 1-.9.702h-7.024v-.003H6.19a.284.284 0 0 1 0-.566h4.685l1.11-4.408a.688.688 0 0 1 .664-.52h6.557a.515.515 0 0 1 .499.638Z" fill="#C3B0FF"/><path d="M15.53 32.068a.534.534 0 1 0 0-1.069.534.534 0 0 0 0 1.069Z" fill="#fff"/><path d="m34.035 15.93-.039-.063.038.062Z" fill="#9883F2"/><path d="M59.29 59.522h-9.6c0-1.134.46-2.205 1.202-2.95a4.082 4.082 0 0 1 2.901-1.2h1.39c2.268 0 4.107 1.883 4.107 4.15Z" fill="#fff"/><path d="M60.143 59.522H59.07v-.127c0-.292.236-.532.531-.532h.015c.292 0 .531.237.531.532v.127h-.003Z" fill="#F5F5FC"/><path d="M56.353 58.527c0 .009-.337.032-.756.062.41.272.316.889.316.889-.015-.358-.177-.396-.325-.5a.678.678 0 0 0-.39-.114l-1.617.017c.319-.729-.092-1.381-.55-1.677a1.756 1.756 0 0 0-.852-.245c.286-.008.525-.011.735.006.407.033.776.248 1.015.579.195.266.582.697 1.087.711.79.021.885-.34 1.266-.947 1.217-1.928.018.074.018.074l.053 1.145Z" fill="#DCD7FF"/><path d="M57.492 59.522s.971-.169 1.361-.623l.664.02s-.493.119-.499.6l-1.526.003Z" fill="#DADAF7"/><path d="M50.487 58.444s-.322.653.463.647c.564-.003.664.416.664.416s.198-.443-.448-.643c-.124-.039-.352-.074-.437-.1-.257-.078-.242-.32-.242-.32Z" fill="#DCD7FF"/><path d="M57.675 56.363s-1.024-.416-1.426.667c-.319.86.048 1.228-.118 1.26l.821.05s.584-1.195.56-1.195c-.023 0 .163-.782.163-.782Z" fill="#381177"/><path d="M59.385 57.824v.225c0 .812-.833 1.473-1.645 1.473H56.185c-.118 0-.23-.018-.33-.047a.977.977 0 0 1-.208-.086.842.842 0 0 1-.345-.366c-.006-.012-.012-.024-.015-.036a.873.873 0 0 1-.068-.275v-.002c-.003-.03 0-.06.01-.086a.334.334 0 0 1 .315-.236l.074-.015.03-.005.265-.05a.16.16 0 0 0 .06-.012c.132-.048.327-.23.35-.34.151-.703.18-.847.473-1.136.292-.293.552-.476.995-.476h.133a1.47 1.47 0 0 1 1.438 1.17c.011.1.023.197.023.3Z" fill="#fff"/><path d="M59.32 57.514c-.284.124-.709.63-.862.83-.251.334-.72.43-1.107.354a1.01 1.01 0 0 1-.378-.153c-.275-.195-.278-.496-.163-.874.048-.154.113-.316.19-.49.25-.579.87-.741 1.29-.78.52.148.92.576 1.03 1.113Z" fill="#DCD7FF"/><path d="M57.826 58.07c0 .315-.204.575-.475.628a1.008 1.008 0 0 1-.378-.154c-.275-.194-.278-.495-.163-.873a.549.549 0 0 1 .446-.236c.313-.003.57.283.57.634Z" fill="#B9B9F9"/><path d="M56.899 57.8s.097.166.38.042c0 0-.043.115-.13.16-.09.05-.262.014-.25-.201ZM55.718 58.621c0 .204-.18.366-.401.366h-.033c-.011-.023-.02-.05-.03-.076a1.077 1.077 0 0 1-.04-.198v-.003c-.003-.03 0-.059.008-.086.015-.053.05-.1.086-.141.097-.112.301-.11.301-.11a.35.35 0 0 1 .11.248ZM58.245 56.416c.027-.009.623-.073 1.013.234.392.306.581.584.679 1.11.115.622-.03 1.552-.629 1.697-.458.112-1.272.032-1.21-.992.044-.726.558-1.157.463-1.67-.056-.317-.316-.379-.316-.379ZM56.161 59.165s-.032.26-.31.31a.988.988 0 0 1-.206-.086.561.561 0 0 0 .516-.224Z" fill="#381177"/><path d="M49.958 24.23s-.673-.141-.903-.25c-.233-.11-.455.117-.177.348.277.23.995.67.995.67l.085-.768ZM60.536 31.58s-.107.249-.228.476c-.082.157-.17.301-.236.351-.16.124-.65.328-.761.355-.113.023-.237.062-.31-.021 0 0-.148.094-.254.1-.107.006-.139-.023-.175-.094 0 0-.1.068-.174.02-.073-.047-.08-.08-.05-.186 0 0-.145.077-.127-.132.015-.21.455-.538.493-.6.018-.026.086-.12.136-.212 0 0 .089-.192.015-.186-.05.003-.121.077-.163.121a1.334 1.334 0 0 0-.097-.041l-.174-.08c.068-.112.263-.42.395-.481.166-.077.576-.399.576-.399l1.134 1.01Z" fill="#FFD5C2"/><path d="M59.402 30.568s.933.322 1.134 1.013l-.49.118s-.664-.709-.667-.709c-.003 0-.089-.28-.089-.28l.112-.142Z" fill="#FFD5C2"/><path d="M49.994 24.127a.807.807 0 0 1-.431.018v-.254a.376.376 0 0 0 .189.15c.218.074.242.086.242.086ZM49.566 24.806s.245.245.52.153c0 0-.243.148-.52.104v-.257Z" fill="#E0A38D"/><path d="M48.76 7.584c0 2.175-1.754 4.11-5.547 3.613-1.057-.139-1.899.33-2.648.91-.31.239-.712.54-1.21.832a7.88 7.88 0 0 1-1.77.77 7.346 7.346 0 0 1-.95.216c-.009.003-.017.003-.03.006-.108.017-.215.032-.321.044a5.742 5.742 0 0 1-.46.047 2.161 2.161 0 0 1-.14.012c-.014.003-.029.003-.044.003-.141.009-.283.015-.422.018a9.953 9.953 0 0 1-1.99-.142h-.005a8.48 8.48 0 0 1-1.415-.369c-.983-.348-1.833-.865-2.476-1.511-.895-.895-1.397-2.043-1.332-3.357.136-2.692 2.592-3.094 4.396-5.632C33.993.8 36.514.006 38.232 0c5.524-.02 4.558 3.625 7.384 4.192 2.497.499 3.144 1.951 3.144 3.392Z" fill="url(#_2629755967__e)"/><path d="M39.239 5.636a1.135 1.135 0 0 1-.094.094.944.944 0 0 1 .094-.095Z" fill="url(#_2629755967__f)"/><path d="M40.045 5.054s-.292.431-.292.44c0 .009-.224.133-.24.144-.014.012-.253-.002-.274-.002l.003-.003c.003-.003.006-.006.006-.01a.583.583 0 0 0 .041-.047c.003 0 .003-.002.003-.002a3.98 3.98 0 0 1 .195-.201c.275-.266.357-.647.37-.715l.188.396Z" fill="url(#_2629755967__g)"/><path d="M37.474 6.297s.514.018 1.01-.635l.605 2.388-1.279.963-.962-.13-.487-.963.785-1.207.328-.416Z" fill="#FFD5C2"/><path d="M39.747 15.2s-.472-.112-1.107.207a2.329 2.329 0 0 0-.354.215s-.041-.065-.11-.195c-.144-.28-.404-.859-.584-1.718-.083-.398-.26-1.01-.015-1.756a.087.087 0 0 1 .012-.03s-.446.425-.948 2.002c-.318.05-.634.085-.947.106l-.467.026s.08 1.905.753 2.876l-1.848.732s-1.006-2.326-.894-3.752v-.003h-.006c-1.586-.277-2.955-.939-3.891-1.88.643-1.39 2.99-5.78 8.251-5.754-.012.015-.133.162-.218.384-.003.003-.003.009-.006.012-.124.33-.169.817.3 1.293.234.233.538.262.822.094.141-.086.194-.15.318-.204a.89.89 0 0 1 .166-.056s1.06 1.225.676 2.495c-.245.809-.248 1.65-.287 2.639-.03.6.068 1.316.384 2.267Z" fill="#9359EF"/><path d="M33.863 9.665c-.758 1.866-.64 4.248-.64 4.248a8.48 8.48 0 0 1-1.414-.369c.34-2.388 2.054-3.879 2.054-3.879ZM39.106 15.277l-.933.153c-.144-.28-.404-.859-.584-1.718-.083-.398-.263-1.021-.018-1.768l.653-.74c-.018.04-.34 1.097-.012 1.705.336.617.026 1.84.894 2.368ZM35.826 14.022a2.239 2.239 0 0 1-.138.012c-.015.003-.03.003-.045.003-.141.009-.283.015-.422.018 0-.071.003-1.06.328-2.043 0 0 .02 1.316.277 2.01Z" fill="#6A37CC"/><path d="M38.802 7.858c-.006.027.009.487-.644.555-.513.053-1.219-.75-.797-1.738-.123.33-.168.817.302 1.292.233.234.537.263.82.095.145-.083.198-.148.32-.204Z" fill="#6131BC"/><path d="M40.653 20.42h-4.009a.62.62 0 0 1-.62-.62v-4.01a.62.62 0 0 1 .62-.62h4.01a.62.62 0 0 1 .62.62v4.01a.62.62 0 0 1-.62.62Z" fill="#00C4CC"/><path d="M38.395 17.016h-.16a.534.534 0 0 0-.21.03.25.25 0 0 0-.111.12.593.593 0 0 0-.056.219H37.7v-.538h1.895v.54h-.156c-.03-.144-.07-.242-.127-.295-.053-.05-.139-.076-.26-.076h-.162v1.337c0 .085.015.147.044.18.03.035.092.05.186.05h.05v.157h-1.048v-.157h.045c.094 0 .156-.018.186-.053.03-.036.04-.095.04-.18v-1.334Z" fill="#fff"/><path d="M36.712 19.002c.03.098.024.13-.053.171-.074.045-.177-.02-.177-.02-.035.068-.068.094-.177.088-.11-.006-.26-.094-.26-.094-.074.077-.2.041-.313.018-.112-.024-.832-.393-.995-.508-.162-.115-.39-1.084-.39-1.084l1.394-.546.292.118-.006.346-.159-.06c-.269-.052-.047.264-.006.322.041.06.962.933.977 1.125.018.195-.127.124-.127.124Z" fill="#FFD5C2"/><path d="M41.572 7.274c.202 0 .366-.185.366-.413 0-.229-.164-.414-.366-.414-.203 0-.366.185-.366.414 0 .228.163.413.366.413Z" fill="#EFB7A0"/><path d="m42.283 5.76-.906 1.543s-.665 1.382-1.834 1.034c-1.178-.352-1.228-1.47-1.083-2.657.086-.697 1.054-1.237 1.054-1.237l1.736.124 1.033 1.192Z" fill="#FFD5C2"/><path d="M39.954 6.43a.16.16 0 1 0 0-.32.16.16 0 0 0 0 .32ZM41.135 6.97a.16.16 0 1 0 0-.319.16.16 0 0 0 0 .319Z" fill="#381177"/><path d="M39.753 7.363s.29.271.626.28c0 0-.145.25-.452.094-.257-.132-.174-.374-.174-.374Z" fill="#fff"/><path d="M39.744 5.677s.416-.39.703.018c0 0 .068.126-.01.2-.12.115-.07-.28-.693-.218ZM41.684 6.636s.068-.564-.431-.552c0 0-.142.02-.157.127-.02.16.269-.115.588.425Z" fill="#381177"/><path d="M40.804 6.436s-.393.333-.257.581c.148.272-.077.452-.269.328 0 0 .127.177.331.106.192-.068.2-.292.127-.401-.062-.095-.18-.278.068-.614ZM38.808 7.85l-.006.008a.445.445 0 0 0-.162.1c0 .004-.003.004-.003.004-.041.03-.089.065-.153.103a.736.736 0 0 1-.299.103c-.475-.776.352-1.854.352-1.854-.236.862.271 1.535.271 1.535Z" fill="#EFB7A0"/><path d="M39.918 6.858a.603.603 0 1 1 .001-1.206.603.603 0 0 1 0 1.206Zm0-1.149a.547.547 0 1 0 .001 1.094.547.547 0 0 0 0-1.094ZM41.27 7.43a.603.603 0 1 1 .001-1.205.603.603 0 0 1 0 1.205Zm0-1.145a.547.547 0 1 0 .001 1.093.547.547 0 0 0 0-1.093Z" fill="#381177"/><path d="m40.76 6.592-.31-.13-.021.052.31.13.022-.052Z" fill="#381177"/><path d="M39.936 4.726s-.301.115-.378.47c0 0-.065.144-.227.327l-.18.154-.136-.127s-.1-.006-.33.171a4.97 4.97 0 0 1-.214.157c-.342.239-.495.262-.495.262s.298-.23.304-1.071c.006-.91.717-1.19.717-1.19l.939.847Z" fill="#E0A38D"/><path d="M39.936 4.726s.478-.437.9.186c.322.472.765 1.054 1.491.998 0 0 .579-.03.655-.345.042-.175-.505-.142-.558-.496-.032-.222.062-.833-.448-.945-.41-.089-.437-.165-.467-.446-.038-.357-.605-.685-1.083-.419-.479.266-.384-.15-.99-.121-.368.018-.622.269-.519.776" fill="#381177"/><path d="m39.065 5.47-.006.003c.003 0 .006 0 .006-.003Z" fill="#EDA69D"/><path d="m39.464 5.927-.698-.645-.038.04.698.646.038-.041Z" fill="#381177"/><path d="M38.681 5.886c.202.01.376-.165.389-.393.012-.228-.142-.422-.344-.433-.201-.01-.375.165-.388.393-.012.228.142.422.343.433Z" fill="#FFD5C2"/></g><defs><linearGradient id="_2629755967__b" x1="21.848" y1="18.33" x2="53.826" y2="18.33" gradientUnits="userSpaceOnUse"><stop stop-color="#4204BF"/><stop offset=".502" stop-color="#6127E6"/><stop offset=".513" stop-color="#6329E7"/><stop offset=".712" stop-color="#8245F1"/><stop offset=".881" stop-color="#9456F7"/><stop offset="1" stop-color="#9B5CF9"/></linearGradient><linearGradient id="_2629755967__c" x1="56.745" y1="37.614" x2="66.021" y2="16.385" gradientUnits="userSpaceOnUse"><stop stop-color="#E476EA"/><stop offset="1" stop-color="#FFD1AB"/></linearGradient><linearGradient id="_2629755967__d" x1=".574" y1="34.741" x2="15.596" y2="21.243" gradientUnits="userSpaceOnUse"><stop stop-color="#E476EA"/><stop offset="1" stop-color="#FFD1AB"/></linearGradient><linearGradient id="_2629755967__e" x1="31.975" y1="16.184" x2="42.318" y2="3.336" gradientUnits="userSpaceOnUse"><stop stop-color="#E476EA"/><stop offset="1" stop-color="#FFD1AB"/></linearGradient><linearGradient id="_2629755967__f" x1="39.13" y1="5.769" x2="39.22" y2="5.643" gradientUnits="userSpaceOnUse"><stop stop-color="#520091"/><stop offset=".339" stop-color="#8529D1"/><stop offset=".555" stop-color="#A240F6"/><stop offset="1" stop-color="#CD79FF"/></linearGradient><linearGradient id="_2629755967__g" x1="39.136" y1="5.995" x2="39.932" y2="4.899" gradientUnits="userSpaceOnUse"><stop stop-color="#520091"/><stop offset=".339" stop-color="#8529D1"/><stop offset=".555" stop-color="#A240F6"/><stop offset="1" stop-color="#CD79FF"/></linearGradient><clipPath id="_2629755967__a"><path fill="#fff" d="M0 0h72v59.557H0z"/></clipPath></defs></svg>